<?xml version="1.0" standalone="no"?>
<!DOCTYPE svg PUBLIC "-//W3C//DTD SVG 20010904//EN"
 "http://www.w3.org/TR/2001/REC-SVG-20010904/DTD/svg10.dtd">
<svg version="1.0" xmlns="http://www.w3.org/2000/svg"
 width="720.000000pt" height="720.000000pt" viewBox="0 0 720.000000 720.000000"
 preserveAspectRatio="xMidYMid meet">
<metadata>
Created by potrace 1.14, written by Peter Selinger 2001-2017
</metadata>
<g transform="translate(0.000000,720.000000) scale(0.100000,-0.100000)"
fill="#000000" stroke="none">
<path d="M0 3600 l0 -3600 200 0 200 0 0 3600 0 3600 -200 0 -200 0 0 -3600z"/>
<path d="M790 5041 l0 -149 53 4 c28 2 103 5 165 8 l113 4 -7 -71 c-4 -40 -8
-547 -9 -1127 -1 -580 -5 -1086 -9 -1125 -14 -133 -57 -214 -131 -249 -17 -8
-64 -21 -103 -27 l-72 -12 0 -121 0 -122 595 0 595 0 1 88 c1 111 1 151 0 184
l-1 26 -152 -7 c-84 -4 -157 -7 -163 -8 -5 -1 -9 12 -7 28 1 17 5 273 8 570 3
297 8 542 10 544 4 4 181 8 842 16 l503 6 -1 -453 c-2 -496 -7 -554 -58 -638
-35 -56 -78 -81 -175 -100 -43 -8 -78 -18 -77 -23 0 -4 0 -58 0 -121 l0 -113
595 -2 595 -2 0 152 0 152 -165 -7 -165 -6 7 92 c4 51 7 540 8 1085 0 546 2
993 5 993 5 0 62 -182 85 -270 30 -113 175 -509 240 -655 8 -16 62 -145 120
-285 59 -140 152 -361 207 -490 55 -129 120 -282 144 -340 25 -58 50 -116 56
-130 18 -41 26 -60 82 -195 l54 -130 164 -2 163 -3 168 438 c93 240 181 471
196 512 25 67 345 899 458 1190 148 384 148 384 150 337 1 -78 15 -387 18
-408 2 -15 6 -87 10 -160 9 -205 15 -326 20 -419 2 -47 7 -146 10 -220 3 -74
7 -166 10 -205 9 -155 18 -382 17 -420 -8 -235 -65 -317 -241 -346 l-71 -12 0
-121 0 -122 580 0 c399 0 581 3 583 10 2 6 4 72 3 146 l-1 135 -167 -2 -167
-2 5 52 c5 54 5 325 0 412 -2 28 -6 115 -10 195 -4 80 -9 181 -11 225 -3 44
-7 143 -10 220 -4 77 -8 176 -10 220 -6 137 -15 316 -20 410 -31 611 -26 681
52 783 37 50 142 89 226 84 9 0 17 5 18 11 1 17 1 199 0 220 -1 16 -30 17
-455 17 l-455 0 -19 -52 c-22 -59 -24 -64 -247 -633 -86 -220 -168 -429 -181
-465 -14 -36 -30 -74 -35 -85 -5 -11 -20 -51 -34 -90 -14 -38 -30 -79 -35 -90
-5 -11 -48 -123 -95 -250 -47 -126 -92 -243 -100 -260 -8 -16 -37 -95 -65
-175 -46 -129 -61 -170 -90 -245 -5 -11 -19 -49 -33 -85 -24 -61 -26 -63 -35
-40 -5 14 -26 70 -46 125 -45 121 -84 223 -96 250 -5 11 -30 76 -55 145 -47
125 -155 399 -180 455 -7 17 -26 64 -43 105 -16 41 -87 217 -157 390 -71 173
-190 468 -265 655 l-137 340 -576 3 -577 2 -1 -50 c0 -27 -1 -66 -1 -85 0
-155 1 -164 20 -160 10 2 83 5 163 7 l144 3 -3 -25 c-1 -14 -5 -263 -8 -555
-4 -291 -7 -531 -9 -533 -2 -2 -305 -4 -675 -5 l-671 -2 2 447 c1 387 3 455
18 510 10 35 22 72 28 83 33 59 111 101 208 112 28 3 51 6 52 7 1 1 3 55 4
121 l3 120 -597 3 -597 2 0 -149z"/>
</g>
</svg>
